HIERARCHY
ROOT Hips
{
	OFFSET -0.001795 -0.223333 0.028219
	CHANNELS 6 Xposition Yposition Zposition Zrotation Yrotation Xrotation 
	JOINT LeftUpLeg
	{
		OFFSET 0.069520 -0.091406 -0.006815
		CHANNELS 3 Zrotation Yrotation Xrotation
		JOINT LeftLeg
		{
			OFFSET 0.034277 -0.375199 -0.004496
			CHANNELS 3 Zrotation Yrotation Xrotation
			JOINT LeftFoot
			{
				OFFSET -0.013596 -0.397961 -0.043693
				CHANNELS 3 Zrotation Yrotation Xrotation
				JOINT LeftToe
				{
					OFFSET 0.026358 -0.055791 0.119288
					CHANNELS 3 Zrotation Yrotation Xrotation
					End Site
					{
						OFFSET 0.000000 0.000000 0.000000
					}
				}
			}
		}
	}
	JOINT RightUpLeg
	{
		OFFSET -0.067670 -0.090522 -0.004320
		CHANNELS 3 Zrotation Yrotation Xrotation
		JOINT RightLeg
		{
			OFFSET -0.038290 -0.382569 -0.008850
			CHANNELS 3 Zrotation Yrotation Xrotation
			JOINT RightFoot
			{
				OFFSET 0.015774 -0.398415 -0.042312
				CHANNELS 3 Zrotation Yrotation Xrotation
				JOINT RightToe
				{
					OFFSET -0.025372 -0.048144 0.123348
					CHANNELS 3 Zrotation Yrotation Xrotation
					End Site
					{
						OFFSET 0.000000 0.000000 0.000000
					}
				}
			}
		}
	}
	JOINT Spine
	{
		OFFSET -0.002533 0.108963 -0.026696
		CHANNELS 3 Zrotation Yrotation Xrotation
		JOINT Spine1
		{
			OFFSET 0.005487 0.135180 0.001092
			CHANNELS 3 Zrotation Yrotation Xrotation
			JOINT Spine2
			{
				OFFSET 0.001457 0.052922 0.025425
				CHANNELS 3 Zrotation Yrotation Xrotation
				JOINT Neck
				{
					OFFSET -0.002778 0.213870 -0.042857
					CHANNELS 3 Zrotation Yrotation Xrotation
					JOINT Head
					{
						OFFSET 0.005152 0.064970 0.051349
						CHANNELS 3 Zrotation Yrotation Xrotation
						End Site
						{
							OFFSET 0.000000 0.000000 0.000000
						}
					}
				}
				JOINT LeftShoulder
				{
					OFFSET 0.078845 0.121749 -0.034090
					CHANNELS 3 Zrotation Yrotation Xrotation
					JOINT LeftArm
					{
						OFFSET 0.090977 0.030469 -0.008868
						CHANNELS 3 Zrotation Yrotation Xrotation
						JOINT LeftForeArm
						{
							OFFSET 0.259612 -0.012772 -0.027456
							CHANNELS 3 Zrotation Yrotation Xrotation
							JOINT LeftHand
							{
								OFFSET 0.249234 0.008986 -0.001171
								CHANNELS 3 Zrotation Yrotation Xrotation
								End Site
								{
									OFFSET 0.000000 0.000000 0.000000
								}
							}
						}
					}
				}
				JOINT RightShoulder
				{
					OFFSET -0.081759 0.118833 -0.038615
					CHANNELS 3 Zrotation Yrotation Xrotation
					JOINT RightArm
					{
						OFFSET -0.096012 0.032551 -0.009143
						CHANNELS 3 Zrotation Yrotation Xrotation
						JOINT RightForeArm
						{
							OFFSET -0.253742 -0.013329 -0.021401
							CHANNELS 3 Zrotation Yrotation Xrotation
							JOINT RightHand
							{
								OFFSET -0.255298 0.007772 -0.005559
								CHANNELS 3 Zrotation Yrotation Xrotation
								End Site
								{
									OFFSET 0.000000 0.000000 0.000000
								}
							}
						}
					}
				}
			}
		}
	}
}
MOTION
Frames: 13
Frame Time: 0.050000
0.343215 0.934626 0.077843 -10.941708 15.002028 6.788046 12.019549 -0.989200 -21.069493 -1.688855 -0.136520 7.726115 3.752829 10.973546 7.689187 0.000000 0.000000 0.000000 -4.730246 0.600027 -9.909915 1.686758 -0.322122 14.146013 -1.566856 -5.859096 11.568241 0.000000 0.000000 0.000000 0.193730 -0.736745 11.698272 -2.058302 1.007341 -2.237369 -3.067045 13.162747 4.068403 7.829055 0.042591 -23.232654 0.000000 0.000000 0.000000 4.132006 -24.686755 7.491728 13.842496 -37.429359 -7.881196 25.682704 -7.206586 -2.129524 0.000000 0.000000 0.000000 17.680211 14.781393 12.289765 59.494726 40.804648 16.644474 -56.593010 79.250822 -35.331947 0.000000 0.000000 0.000000 
0.337194 0.932196 0.076235 -10.492778 14.475771 6.099942 12.420852 -0.894559 -20.654734 -2.530340 -0.038794 8.452825 4.135348 11.627707 7.857963 0.000000 0.000000 0.000000 -5.330334 0.503282 -8.764788 1.599841 -0.298378 14.707700 -1.819393 -6.405378 11.334253 0.000000 0.000000 0.000000 0.740356 -0.772999 11.345909 -1.710761 0.864927 -2.271926 -3.684869 13.161325 5.010907 8.730413 -0.468672 -23.100021 0.000000 0.000000 0.000000 0.533373 -24.117546 7.012980 5.910862 -37.914662 -5.352833 30.232475 -16.252602 -5.055698 0.000000 0.000000 0.000000 18.211607 12.018801 10.798782 62.010280 35.942300 14.399230 -43.493787 84.460739 -26.020501 0.000000 0.000000 0.000000 
0.327436 0.928639 0.073587 -9.682447 14.394148 5.735084 12.505297 -0.886777 -21.189978 -3.136617 0.001194 9.898165 4.866147 12.864713 7.912421 0.000000 0.000000 0.000000 -5.990441 0.397679 -7.444490 1.428062 -0.254289 14.889570 -1.948081 -6.536439 10.217833 0.000000 0.000000 0.000000 1.107877 -0.764898 10.749912 -1.884523 0.879278 -0.994401 -4.255470 11.713837 4.966863 8.807258 -0.644471 -23.306132 0.000000 0.000000 0.000000 -2.627281 -22.882437 6.419169 -1.071105 -37.432206 -2.950977 33.488585 -26.419734 -8.803166 0.000000 0.000000 0.000000 18.227648 9.840548 9.077774 63.705142 31.040980 11.921106 46.729525 89.072898 60.432665 0.000000 0.000000 0.000000 
0.313024 0.925309 0.069204 -8.746411 14.275445 5.232347 12.671278 -0.855304 -21.369652 -3.716557 0.058957 11.000469 4.877409 13.051239 8.529658 0.000000 0.000000 0.000000 -6.387045 0.299247 -5.764931 1.566980 -0.272532 14.325848 -2.270990 -7.054088 8.809000 0.000000 0.000000 0.000000 1.305763 -0.759818 10.489145 -1.371661 0.667366 -1.193739 -5.008159 11.118047 5.893905 9.132443 -0.854925 -23.435758 0.000000 0.000000 0.000000 -5.309075 -21.631725 5.749968 -7.293054 -36.741406 -1.060765 34.796082 -37.117093 -12.927859 0.000000 0.000000 0.000000 18.308046 7.323141 7.487048 65.184353 25.640134 8.911794 121.232349 83.529709 131.131465 0.000000 0.000000 0.000000 
0.294331 0.923122 0.063002 -7.847625 14.141256 4.898251 12.560833 -0.849331 -21.418422 -3.369698 -0.021432 11.625888 5.255930 13.763273 8.913898 0.000000 0.000000 0.000000 -6.389853 0.252733 -4.781535 1.330097 -0.197219 14.023450 -3.208218 -8.972100 7.819430 0.000000 0.000000 0.000000 1.666932 -0.751657 9.962846 -1.522691 0.712499 -0.727281 -5.350499 9.947450 6.165885 8.767215 -0.794995 -23.497747 0.000000 0.000000 0.000000 -7.733494 -20.301978 5.134778 -12.298260 -36.007232 0.383022 33.197091 -47.033199 -15.698239 0.000000 0.000000 0.000000 17.988720 5.283969 5.868799 66.168125 20.718029 6.172722 127.495140 76.807877 132.407521 0.000000 0.000000 0.000000 
0.272108 0.921683 0.055019 -6.922038 13.723506 4.309890 12.601087 -0.776314 -20.430553 -2.893449 -0.054427 10.573767 4.939801 13.629263 10.544992 0.000000 0.000000 0.000000 -6.073473 0.196510 -3.380794 1.110149 -0.100094 12.587693 -3.621488 -9.812848 6.232613 0.000000 0.000000 0.000000 2.111576 -0.785856 9.897850 -0.961104 0.489522 -1.155474 -6.052010 9.374134 6.754812 9.127293 -0.957898 -24.089980 0.000000 0.000000 0.000000 -9.332380 -18.914420 4.478238 -18.313757 -34.548420 1.812077 30.453541 -55.582408 -17.489369 0.000000 0.000000 0.000000 18.015466 3.224989 4.502283 66.467632 16.747318 3.783033 129.552179 70.661659 129.677854 0.000000 0.000000 0.000000 
0.247773 0.921345 0.046134 -6.074135 13.109443 3.847644 12.676683 -0.693560 -19.346601 -2.833145 0.003184 9.072299 4.942247 13.887012 11.878969 0.000000 0.000000 0.000000 -5.518377 0.159511 -2.356236 0.747421 0.017237 11.329835 -4.166298 -11.028903 4.984150 0.000000 0.000000 0.000000 2.280995 -0.761859 9.550432 -0.684947 0.369078 -1.174085 -6.287008 8.710345 6.752195 8.942030 -0.944081 -24.234739 0.000000 0.000000 0.000000 -10.560971 -17.600943 3.927148 -23.601247 -32.991462 2.846838 27.449870 -60.684005 -17.534852 0.000000 0.000000 0.000000 18.348935 2.211146 3.711014 66.128294 13.463732 1.701178 129.987520 65.664902 125.069268 0.000000 0.000000 0.000000 
0.222224 0.920069 0.036676 -5.186439 12.438425 3.092354 12.672505 -0.605668 -17.701559 -2.077371 -0.004373 6.388178 4.647314 13.911981 14.245506 0.000000 0.000000 0.000000 -4.624088 0.057248 -0.539077 0.358920 0.117928 9.144374 -4.395160 -11.528589 2.274848 0.000000 0.000000 0.000000 2.780614 -0.760148 9.102751 -0.633373 0.351745 -1.199266 -6.558227 8.550604 7.243880 9.574231 -1.223284 -24.883533 0.000000 0.000000 0.000000 -11.410248 -16.732981 3.513678 -29.006604 -31.355448 3.640554 22.443563 -64.939690 -15.881633 0.000000 0.000000 0.000000 18.184269 0.731363 2.729621 66.514470 11.359830 0.484732 128.922979 62.195482 120.169368 0.000000 0.000000 0.000000 
0.196240 0.918571 0.026566 -4.346631 12.198678 2.437054 13.063156 -0.527576 -16.487966 -2.213000 0.078529 4.411123 4.937374 14.551434 15.544818 0.000000 0.000000 0.000000 -3.928767 -0.059677 0.987029 0.331120 0.109198 7.095351 -4.740840 -12.388078 0.907670 0.000000 0.000000 0.000000 3.355189 -0.754632 8.527168 -0.720413 0.381302 -0.958233 -6.630861 8.011754 7.327674 9.093914 -1.000270 -25.186993 0.000000 0.000000 0.000000 -12.217737 -15.648399 3.057707 -33.358668 -29.804337 4.068629 19.384691 -68.293345 -14.790058 0.000000 0.000000 0.000000 18.243747 0.232146 2.284890 66.591493 10.230624 -0.219977 126.803486 61.093318 115.696976 0.000000 0.000000 0.000000 
0.170695 0.917108 0.015545 -3.775293 11.510905 1.470243 13.578895 -0.422365 -15.085976 -1.709136 0.084653 2.372006 4.878033 14.753283 17.480181 0.000000 0.000000 0.000000 -2.690278 -0.172721 2.094509 0.059147 0.149584 5.976224 -4.638160 -12.080970 -1.211540 0.000000 0.000000 0.000000 4.235089 -0.841422 8.739591 -0.846339 0.435495 -0.802302 -6.534931 7.791210 7.267234 9.437023 -1.295252 -24.979142 0.000000 0.000000 0.000000 -12.900291 -14.722403 2.659823 -37.364470 -27.999135 4.232605 15.189374 -71.620306 -12.686039 0.000000 0.000000 0.000000 17.651199 -0.218342 1.809212 67.051091 10.180757 -0.154963 123.803353 61.007602 111.244376 0.000000 0.000000 0.000000 
0.146489 0.916272 0.003633 -3.145169 10.840410 0.691884 14.181857 -0.325783 -14.370657 -1.343051 0.075998 1.485990 4.627359 14.523831 18.540074 0.000000 0.000000 0.000000 -1.746786 -0.237995 2.557216 0.343969 0.097752 5.655772 -4.798950 -12.429574 -2.751630 0.000000 0.000000 0.000000 4.904051 -0.927558 9.137489 -1.021136 0.530422 -0.995508 -6.382567 7.893237 7.493723 8.919049 -1.027369 -25.185948 0.000000 0.000000 0.000000 -13.436514 -14.096837 2.369428 -40.599297 -26.537882 4.205998 10.469814 -75.103696 -9.889678 0.000000 0.000000 0.000000 17.409894 -0.226233 1.717980 67.725687 10.975824 0.364029 120.337891 62.049962 107.820021 0.000000 0.000000 0.000000 
0.124762 0.916127 -0.008645 -2.738184 10.096665 -0.259410 14.596740 -0.238666 -13.523044 -0.705095 0.046354 0.514804 4.174772 14.035693 19.653569 0.000000 0.000000 0.000000 -0.508161 -0.319702 3.014837 0.510918 0.063420 5.110465 -4.898987 -12.593175 -4.139183 0.000000 0.000000 0.000000 5.770533 -1.054500 9.742563 -1.295716 0.682957 -1.467677 -5.921980 7.653778 8.151162 9.057838 -1.224071 -25.063238 0.000000 0.000000 0.000000 -13.863307 -13.322199 2.123165 -43.532982 -25.552118 4.141947 2.854933 -78.245557 -4.076528 0.000000 0.000000 0.000000 16.783700 -0.126570 1.570078 68.069726 12.367641 1.195531 116.441566 62.753861 103.482822 0.000000 0.000000 0.000000 
0.106155 0.917144 -0.020335 -2.295448 9.912823 -0.808486 14.883432 -0.194773 -13.271710 -0.932691 0.065664 0.607218 3.675549 13.405288 19.916266 0.000000 0.000000 0.000000 0.137498 -0.334012 2.969875 0.720261 0.022032 4.769317 -4.746423 -12.104710 -4.550760 0.000000 0.000000 0.000000 6.296488 -1.155200 10.280354 -1.280862 0.676518 -1.418595 -5.811065 7.640348 8.121919 8.836057 -1.111875 -25.148506 0.000000 0.000000 0.000000 -14.057479 -13.278832 2.108412 -44.939259 -25.547696 4.286839 -4.150334 -81.325372 1.713659 0.000000 0.000000 0.000000 16.940696 0.086218 1.672205 68.478578 14.013445 2.224142 113.195886 63.574023 100.417158 0.000000 0.000000 0.000000 
